<svg width="150" height="150" viewBox="0 0 150 150" fill="none" xmlns="http://www.w3.org/2000/svg">
<circle cx="75" cy="75" r="75" fill="#FDB927"/>
<path d="M130.165 36.6768L116.22 114.771C115.91 116.32 115.213 117.656 114.128 118.78C113.043 119.903 111.726 120.62 110.177 120.93C108.589 121.201 107.078 121.027 105.645 120.407C104.25 119.787 103.146 118.819 102.333 117.501L74.6743 72.063L46.958 117.501C46.2995 118.625 45.3892 119.496 44.2271 120.116C43.1037 120.736 41.8835 121.046 40.5664 121.046C38.7458 121.046 37.1382 120.465 35.7437 119.303C34.3491 118.141 33.4969 116.63 33.187 114.771L19.1255 36.6768H34.4653L44.4595 91.7026L68.2827 53.7017C68.9412 52.5783 69.8322 51.7067 70.9556 51.0869C72.1177 50.4671 73.3573 50.1572 74.6743 50.1572C75.9914 50.1572 77.2116 50.4671 78.335 51.0869C79.4583 51.7067 80.388 52.5783 81.124 53.7017L104.831 91.7026L114.825 36.6768H130.165Z" fill="black"/>
</svg>
