<svg width="359" height="150" viewBox="0 0 359 150" fill="none" xmlns="http://www.w3.org/2000/svg">
<circle cx="75" cy="75" r="75" fill="#FDB927"/>
<path d="M130.165 36.6768L116.22 114.771C115.91 116.32 115.213 117.656 114.128 118.78C113.043 119.903 111.726 120.62 110.177 120.93C108.589 121.201 107.078 121.027 105.645 120.407C104.25 119.787 103.146 118.819 102.333 117.501L74.6743 72.063L46.958 117.501C46.2995 118.625 45.3892 119.496 44.2271 120.116C43.1037 120.736 41.8835 121.046 40.5664 121.046C38.7458 121.046 37.1382 120.465 35.7437 119.303C34.3491 118.141 33.4969 116.63 33.187 114.771L19.1255 36.6768H34.4653L44.4595 91.7026L68.2827 53.7017C68.9412 52.5783 69.8322 51.7067 70.9556 51.0869C72.1177 50.4671 73.3573 50.1572 74.6743 50.1572C75.9914 50.1572 77.2116 50.4671 78.335 51.0869C79.4583 51.7067 80.388 52.5783 81.124 53.7017L104.831 91.7026L114.825 36.6768H130.165Z" fill="black"/>
<path d="M170.193 55.4639H161.307V47.4316H170.193V55.4639ZM170.193 100H161.307V63.0518H170.193V100ZM194.974 100H191.009C189.733 100 188.366 99.7835 186.907 99.3506C185.472 98.9176 184.127 98.2113 182.874 97.2314C181.621 96.2288 180.584 94.9414 179.764 93.3691C178.943 91.7741 178.533 89.8258 178.533 87.5244V47.4316H187.42V87.5244C187.42 88.6182 187.762 89.4954 188.445 90.1562C189.129 90.7943 189.983 91.1133 191.009 91.1133H194.974V100ZM241.219 87.5244C241.219 89.0511 241.025 90.4297 240.638 91.6602C240.25 92.8678 239.738 93.9388 239.1 94.873C238.462 95.7845 237.721 96.5706 236.878 97.2314C236.035 97.8695 235.146 98.3936 234.212 98.8037C233.3 99.2139 232.366 99.5215 231.409 99.7266C230.475 99.9089 229.586 100 228.743 100H212.713C211.186 100 209.819 99.8063 208.611 99.4189C207.404 99.0316 206.333 98.5189 205.398 97.8809C204.487 97.2201 203.701 96.4681 203.04 95.625C202.402 94.7819 201.878 93.9046 201.468 92.9932C201.058 92.0589 200.75 91.1247 200.545 90.1904C200.363 89.2334 200.271 88.3447 200.271 87.5244V75.4932C200.271 73.2145 200.682 71.2891 201.502 69.7168C202.345 68.1217 203.382 66.8343 204.612 65.8545C205.866 64.8519 207.221 64.1341 208.68 63.7012C210.138 63.2682 211.482 63.0518 212.713 63.0518H228.743V71.9385H212.781C211.596 71.9385 210.696 72.2461 210.081 72.8613C209.466 73.4538 209.158 74.3311 209.158 75.4932V87.4561C209.158 88.6637 209.454 89.5752 210.047 90.1904C210.662 90.8057 211.551 91.1133 212.713 91.1133H228.743C229.951 91.1133 230.851 90.8057 231.443 90.1904C232.036 89.5752 232.332 88.6865 232.332 87.5244V47.4316H241.219V87.5244ZM258.719 55.4639H249.832V47.4316H258.719V55.4639ZM258.719 100H249.832V63.0518H258.719V100ZM299.974 71.9385H279.876V63.0518H299.974V71.9385ZM299.974 55.9082H279.944C278.737 55.9082 277.825 56.2158 277.21 56.8311C276.595 57.4235 276.287 58.3008 276.287 59.4629V100H267.4V59.4629C267.4 57.9362 267.594 56.569 267.981 55.3613C268.369 54.1536 268.882 53.0941 269.52 52.1826C270.18 51.2484 270.932 50.4622 271.775 49.8242C272.618 49.1634 273.496 48.6279 274.407 48.2178C275.341 47.8076 276.276 47.5114 277.21 47.3291C278.144 47.124 279.033 47.0215 279.876 47.0215H299.974V55.9082ZM346.561 103.555C346.561 105.081 346.367 106.449 345.979 107.656C345.592 108.887 345.079 109.958 344.441 110.869C343.803 111.803 343.063 112.59 342.22 113.228C341.377 113.888 340.488 114.424 339.554 114.834C338.642 115.244 337.719 115.54 336.785 115.723C335.851 115.928 334.962 116.03 334.119 116.03H318.089V107.144H334.119C335.304 107.144 336.193 106.836 336.785 106.221C337.378 105.605 337.674 104.717 337.674 103.555V63.0518H346.561V103.555ZM334.119 100H318.089C316.813 100 315.446 99.7835 313.987 99.3506C312.552 98.9176 311.207 98.2113 309.954 97.2314C308.701 96.2288 307.664 94.9414 306.844 93.3691C306.023 91.7741 305.613 89.8258 305.613 87.5244V63.0518H314.5V87.5244C314.5 88.6865 314.808 89.5752 315.423 90.1904C316.038 90.8057 316.95 91.1133 318.157 91.1133H334.119V100Z" fill="#FDB927"/>
</svg>
